<?xml version="1.0" encoding="UTF-8" standalone="no"?> <svg width="64" height="64" viewBox="0 0 64 64" fill="none" xmlns="http://www.w3.org/2000/svg">
<path d="M38.45 7.8999H25.54C24.9878 7.8999 24.54 8.34762 24.54 8.8999V13.7999C24.54 14.3522 24.9878 14.7999 25.54 14.7999H38.45C39.0023 14.7999 39.45 14.3522 39.45 13.7999V8.8999C39.45 8.34762 39.0023 7.8999 38.45 7.8999Z" fill="url(#paint0_linear)"/>
<path d="M41.1901 3H22.8101C22.2578 3 21.8101 3.44772 21.8101 4V8.9C21.8101 9.45228 22.2578 9.9 22.8101 9.9H41.1901C41.7423 9.9 42.1901 9.45228 42.1901 8.9V4C42.1901 3.44772 41.7423 3 41.1901 3Z" fill="url(#paint1_linear)"/>
<path d="M37.58 12.79H26.43C19.659 12.79 14.17 18.279 14.17 25.05V48.74C14.17 55.5111 19.659 61 26.43 61H37.58C44.3511 61 49.84 55.5111 49.84 48.74V25.05C49.84 18.279 44.3511 12.79 37.58 12.79Z" fill="url(#paint2_linear)"/>
<path d="M30.0601 34.0999L36.8701 27.3799L41.6301 32.2599L41.4001 36.8999C41.4001 36.8999 38.6201 38.8999 38.5201 38.9999C38.4201 39.0999 35.3501 39.6399 35.3501 39.6399C34.0001 38.2699 31.3701 35.4799 30.0601 34.0999Z" fill="url(#paint3_linear)"/>
<path d="M22.41 47.22H43.31C43.5753 47.22 43.8296 47.1146 44.0171 46.9271C44.2047 46.7395 44.31 46.4852 44.31 46.22C44.31 45.9548 44.2047 45.7004 44.0171 45.5129C43.8296 45.3253 43.5753 45.22 43.31 45.22H22.41C22.1448 45.22 21.8905 45.3253 21.7029 45.5129C21.5154 45.7004 21.41 45.9548 21.41 46.22C21.41 46.4852 21.5154 46.7395 21.7029 46.9271C21.8905 47.1146 22.1448 47.22 22.41 47.22Z" fill="url(#paint4_linear)"/>
<path d="M43.31 50.6499H22.41C22.1448 50.6499 21.8905 50.7553 21.7029 50.9428C21.5154 51.1303 21.41 51.3847 21.41 51.6499C21.41 51.9151 21.5154 52.1695 21.7029 52.357C21.8905 52.5445 22.1448 52.6499 22.41 52.6499H43.31C43.5753 52.6499 43.8296 52.5445 44.0171 52.357C44.2047 52.1695 44.31 51.9151 44.31 51.6499C44.31 51.3847 44.2047 51.1303 44.0171 50.9428C43.8296 50.7553 43.5753 50.6499 43.31 50.6499Z" fill="url(#paint5_linear)"/>
<path d="M32.74 38.4499C38.16 43.6499 46.23 35.5799 41.02 30.1699C39.25 28.4099 35.7 24.8499 33.93 23.0799C28.52 17.8799 20.46 25.9399 25.65 31.3599L32.74 38.4499ZM39.61 31.5899C43.01 35.0499 37.61 40.4299 34.16 37.0299L31.32 34.1999L36.77 28.7499L39.61 31.5899ZM27.07 24.7799C27.3969 24.3848 27.8022 24.0617 28.2603 23.8311C28.7184 23.6005 29.2193 23.4673 29.7314 23.4401C30.2436 23.4128 30.7558 23.4921 31.2357 23.6728C31.7157 23.8535 32.153 24.1317 32.52 24.4899L35.35 27.3299L29.91 32.7799L27.07 29.9399C26.7302 29.6017 26.4605 29.1997 26.2765 28.7569C26.0925 28.3142 25.9977 27.8394 25.9977 27.3599C25.9977 26.8805 26.0925 26.4057 26.2765 25.963C26.4605 25.5202 26.7302 25.1182 27.07 24.7799V24.7799Z" fill="url(#paint6_linear)"/>
<path d="M22.41 40H30.48C30.7453 40 30.9996 39.8946 31.1871 39.7071C31.3747 39.5196 31.48 39.2652 31.48 39C31.48 38.7348 31.3747 38.4804 31.1871 38.2929C30.9996 38.1054 30.7453 38 30.48 38H22.41C22.1448 38 21.8905 38.1054 21.7029 38.2929C21.5154 38.4804 21.41 38.7348 21.41 39C21.41 39.2652 21.5154 39.5196 21.7029 39.7071C21.8905 39.8946 22.1448 40 22.41 40Z" fill="url(#paint7_linear)"/>
<defs>
<linearGradient id="paint0_linear" x1="24.54" y1="11.3499" x2="39.46" y2="11.3499" gradientUnits="userSpaceOnUse">
<stop stop-color="#141C2C"/>
<stop offset="0.84" stop-color="#090D14"/>
<stop offset="1" stop-color="#070A0F"/>
</linearGradient>
<linearGradient id="paint1_linear" x1="21.8101" y1="6.45" x2="42.1901" y2="6.45" gradientUnits="userSpaceOnUse">
<stop stop-color="#C6C6C6"/>
<stop offset="0.42" stop-color="#AEAEAE"/>
<stop offset="1" stop-color="#878787"/>
</linearGradient>
<linearGradient id="paint2_linear" x1="14.17" y1="36.9" x2="49.83" y2="36.9" gradientUnits="userSpaceOnUse">
<stop stop-color="#00ADEE"/>
<stop offset="0.4" stop-color="#0070B4"/>
<stop offset="1" stop-color="#2E3191"/>
</linearGradient>
<linearGradient id="paint3_linear" x1="30.0601" y1="33.5099" x2="41.6301" y2="33.5099" gradientUnits="userSpaceOnUse">
<stop stop-color="#E55DA1"/>
<stop offset="0.39" stop-color="#CA2027"/>
<stop offset="0.56" stop-color="#B52022"/>
<stop offset="0.9" stop-color="#7E2115"/>
<stop offset="1" stop-color="#6D2111"/>
</linearGradient>
<linearGradient id="paint4_linear" x1="21.43" y1="46.22" x2="44.29" y2="46.22" gradientUnits="userSpaceOnUse">
<stop stop-color="#FDFBF7"/>
<stop offset="0.35" stop-color="#F5F0DF"/>
<stop offset="1" stop-color="#E3D7A9"/>
</linearGradient>
<linearGradient id="paint5_linear" x1="512.157" y1="153.95" x2="1035.65" y2="153.95" gradientUnits="userSpaceOnUse">
<stop stop-color="#FDFBF7"/>
<stop offset="0.35" stop-color="#F5F0DF"/>
<stop offset="1" stop-color="#E3D7A9"/>
</linearGradient>
<linearGradient id="paint6_linear" x1="472.968" y1="597.338" x2="823.473" y2="597.338" gradientUnits="userSpaceOnUse">
<stop stop-color="#FDFBF7"/>
<stop offset="0.35" stop-color="#F5F0DF"/>
<stop offset="1" stop-color="#E3D7A9"/>
</linearGradient>
<linearGradient id="paint7_linear" x1="237.21" y1="116" x2="338.212" y2="116" gradientUnits="userSpaceOnUse">
<stop stop-color="#FDFBF7"/>
<stop offset="0.35" stop-color="#F5F0DF"/>
<stop offset="1" stop-color="#E3D7A9"/>
</linearGradient>
</defs>
</svg>
